{
	"asset":{
		"generator":"Khronos glTF Blender I/O v3.5.30",
		"version":"2.0"
	},
	"scene":0,
	"scenes":[
		{
			"name":"Scene",
			"nodes":[
				0
			]
		}
	],
	"nodes":[
		{
			"mesh":0,
			"name":"Crayon",
			"scale":[
				1,
				5.2043328285217285,
				1
			]
		}
	],
	"meshes":[
		{
			"name":"Cylinder",
			"primitives":[
				{
					"attributes":{
						"POSITION":0,
						"TEXCOORD_0":1,
						"NORMAL":2
					},
					"indices":3
				}
			]
		}
	],
	"accessors":[
		{
			"bufferView":0,
			"componentType":5126,
			"count":774,
			"max":[
				1,
				1.5380862951278687,
				1
			],
			"min":[
				-1,
				-1.723141074180603,
				-1
			],
			"type":"VEC3"
		},
		{
			"bufferView":1,
			"componentType":5126,
			"count":774,
			"type":"VEC2"
		},
		{
			"bufferView":2,
			"componentType":5126,
			"count":774,
			"type":"VEC3"
		},
		{
			"bufferView":3,
			"componentType":5123,
			"count":1524,
			"type":"SCALAR"
		}
	],
	"bufferViews":[
		{
			"buffer":0,
			"byteLength":9288,
			"byteOffset":0,
			"target":34962
		},
		{
			"buffer":0,
			"byteLength":6192,
			"byteOffset":9288,
			"target":34962
		},
		{
			"buffer":0,
			"byteLength":9288,
			"byteOffset":15480,
			"target":34962
		},
		{
			"buffer":0,
			"byteLength":3048,
			"byteOffset":24768,
			"target":34963
		}
	],
	"buffers":[
		{
			"byteLength":27816,
			"uri":"data:application/octet-stream;base64,"
		}
	]
}
