{
	"asset":{
		"generator":"Khronos glTF Blender I/O v3.5.30",
		"version":"2.0"
	},
	"scene":0,
	"scenes":[
		{
			"name":"Scene",
			"nodes":[
				0
			]
		}
	],
	"nodes":[
		{
			"mesh":0,
			"name":"Cube",
			"scale":[
				1,
				0.5353407859802246,
				1
			]
		}
	],
	"meshes":[
		{
			"name":"Cube.002",
			"primitives":[
				{
					"attributes":{
						"POSITION":0,
						"TEXCOORD_0":1,
						"NORMAL":2
					},
					"indices":3
				}
			]
		}
	],
	"accessors":[
		{
			"bufferView":0,
			"componentType":5126,
			"count":153,
			"max":[
				1,
				3.5664498805999756,
				1
			],
			"min":[
				-1,
				0.4605618715286255,
				-1
			],
			"type":"VEC3"
		},
		{
			"bufferView":1,
			"componentType":5126,
			"count":153,
			"type":"VEC2"
		},
		{
			"bufferView":2,
			"componentType":5126,
			"count":153,
			"type":"VEC3"
		},
		{
			"bufferView":3,
			"componentType":5123,
			"count":432,
			"type":"SCALAR"
		}
	],
	"bufferViews":[
		{
			"buffer":0,
			"byteLength":1836,
			"byteOffset":0,
			"target":34962
		},
		{
			"buffer":0,
			"byteLength":1224,
			"byteOffset":1836,
			"target":34962
		},
		{
			"buffer":0,
			"byteLength":1836,
			"byteOffset":3060,
			"target":34962
		},
		{
			"buffer":0,
			"byteLength":864,
			"byteOffset":4896,
			"target":34963
		}
	],
	"buffers":[
		{
			"byteLength":5760,
			"uri":"data:application/octet-stream;base64,"
		}
	]
}
