{
	"asset":{
		"generator":"Khronos glTF Blender I/O v3.5.30",
		"version":"2.0"
	},
	"scene":0,
	"scenes":[
		{
			"name":"Scene",
			"nodes":[
				0
			]
		}
	],
	"nodes":[
		{
			"mesh":0,
			"name":"Coffe Table",
			"rotation":[
				0,
				0,
				-1,
				0
			],
			"scale":[
				-1.3824070692062378,
				-0.14488905668258667,
				-3.051255702972412
			]
		}
	],
	"materials":[
		{
			"doubleSided":true,
			"name":"Material",
			"pbrMetallicRoughness":{
				"baseColorFactor":[
					0.800000011920929,
					0.800000011920929,
					0.800000011920929,
					1
				],
				"metallicFactor":0,
				"roughnessFactor":0.5
			}
		}
	],
	"meshes":[
		{
			"name":"Cube",
			"primitives":[
				{
					"attributes":{
						"POSITION":0,
						"TEXCOORD_0":1,
						"NORMAL":2
					},
					"indices":3,
					"material":0
				}
			]
		}
	],
	"accessors":[
		{
			"bufferView":0,
			"componentType":5126,
			"count":575,
			"max":[
				1.0328744649887085,
				13.403091430664062,
				1.0145318508148193
			],
			"min":[
				-1.0328744649887085,
				-2.4191746711730957,
				-1.0145318508148193
			],
			"type":"VEC3"
		},
		{
			"bufferView":1,
			"componentType":5126,
			"count":575,
			"type":"VEC2"
		},
		{
			"bufferView":2,
			"componentType":5126,
			"count":575,
			"type":"VEC3"
		},
		{
			"bufferView":3,
			"componentType":5123,
			"count":1374,
			"type":"SCALAR"
		}
	],
	"bufferViews":[
		{
			"buffer":0,
			"byteLength":6900,
			"byteOffset":0,
			"target":34962
		},
		{
			"buffer":0,
			"byteLength":4600,
			"byteOffset":6900,
			"target":34962
		},
		{
			"buffer":0,
			"byteLength":6900,
			"byteOffset":11500,
			"target":34962
		},
		{
			"buffer":0,
			"byteLength":2748,
			"byteOffset":18400,
			"target":34963
		}
	],
	"buffers":[
		{
			"byteLength":21148,
			"uri":"data:application/octet-stream;base64,"
		}
	]
}
