{
	"asset":{
		"generator":"Khronos glTF Blender I/O v3.5.30",
		"version":"2.0"
	},
	"scene":0,
	"scenes":[
		{
			"name":"Scene",
			"nodes":[
				0
			]
		}
	],
	"nodes":[
		{
			"mesh":0,
			"name":"Laptop",
			"scale":[
				1.4775441884994507,
				0.11317930370569229,
				1.2603569030761719
			],
			"translation":[
				0,
				0.40826961398124695,
				0.6567191481590271
			]
		}
	],
	"materials":[
		{
			"doubleSided":true,
			"name":"Material",
			"pbrMetallicRoughness":{
				"baseColorFactor":[
					0.800000011920929,
					0.800000011920929,
					0.800000011920929,
					1
				],
				"metallicFactor":0,
				"roughnessFactor":0.5
			}
		}
	],
	"meshes":[
		{
			"name":"Cube",
			"primitives":[
				{
					"attributes":{
						"POSITION":0,
						"TEXCOORD_0":1,
						"NORMAL":2
					},
					"indices":3,
					"material":0
				}
			]
		}
	],
	"accessors":[
		{
			"bufferView":0,
			"componentType":5126,
			"count":158,
			"max":[
				1,
				17.157285690307617,
				0.7550060749053955
			],
			"min":[
				-1,
				-4.0291523933410645,
				-1.3613011837005615
			],
			"type":"VEC3"
		},
		{
			"bufferView":1,
			"componentType":5126,
			"count":158,
			"type":"VEC2"
		},
		{
			"bufferView":2,
			"componentType":5126,
			"count":158,
			"type":"VEC3"
		},
		{
			"bufferView":3,
			"componentType":5123,
			"count":288,
			"type":"SCALAR"
		}
	],
	"bufferViews":[
		{
			"buffer":0,
			"byteLength":1896,
			"byteOffset":0,
			"target":34962
		},
		{
			"buffer":0,
			"byteLength":1264,
			"byteOffset":1896,
			"target":34962
		},
		{
			"buffer":0,
			"byteLength":1896,
			"byteOffset":3160,
			"target":34962
		},
		{
			"buffer":0,
			"byteLength":576,
			"byteOffset":5056,
			"target":34963
		}
	],
	"buffers":[
		{
			"byteLength":5632,
			"uri":"data:application/octet-stream;base64,"
		}
	]
}
