{
	"asset":{
		"generator":"Khronos glTF Blender I/O v3.5.30",
		"version":"2.0"
	},
	"scene":0,
	"scenes":[
		{
			"name":"Scene",
			"nodes":[
				0
			]
		}
	],
	"nodes":[
		{
			"mesh":0,
			"name":"Candle",
			"scale":[
				1,
				0.8552365899085999,
				1
			]
		}
	],
	"meshes":[
		{
			"name":"Cylinder",
			"primitives":[
				{
					"attributes":{
						"POSITION":0,
						"TEXCOORD_0":1,
						"NORMAL":2
					},
					"indices":3
				}
			]
		}
	],
	"accessors":[
		{
			"bufferView":0,
			"componentType":5126,
			"count":580,
			"max":[
				1,
				1,
				1
			],
			"min":[
				-1,
				-1,
				-1
			],
			"type":"VEC3"
		},
		{
			"bufferView":1,
			"componentType":5126,
			"count":580,
			"type":"VEC2"
		},
		{
			"bufferView":2,
			"componentType":5126,
			"count":580,
			"type":"VEC3"
		},
		{
			"bufferView":3,
			"componentType":5123,
			"count":1140,
			"type":"SCALAR"
		}
	],
	"bufferViews":[
		{
			"buffer":0,
			"byteLength":6960,
			"byteOffset":0,
			"target":34962
		},
		{
			"buffer":0,
			"byteLength":4640,
			"byteOffset":6960,
			"target":34962
		},
		{
			"buffer":0,
			"byteLength":6960,
			"byteOffset":11600,
			"target":34962
		},
		{
			"buffer":0,
			"byteLength":2280,
			"byteOffset":18560,
			"target":34963
		}
	],
	"buffers":[
		{
			"byteLength":20840,
			"uri":"data:application/octet-stream;base64,"
		}
	]
}
