{
	"asset":{
		"generator":"Khronos glTF Blender I/O v3.5.30",
		"version":"2.0"
	},
	"scene":0,
	"scenes":[
		{
			"name":"Scene",
			"nodes":[
				0,
				1,
				2
			]
		}
	],
	"nodes":[
		{
			"mesh":0,
			"name":"DeskBody",
			"scale":[
				0.6157405376434326,
				1,
				1
			],
			"translation":[
				0.12642422318458557,
				0,
				0
			]
		},
		{
			"mesh":1,
			"name":"Drawer",
			"rotation":[
				1,
				0,
				0,
				0
			],
			"scale":[
				-0.49384555220603943,
				-0.19105099141597748,
				-0.4151145815849304
			],
			"translation":[
				0.16907677054405212,
				0.5182186365127563,
				1.4469834566116333
			]
		},
		{
			"mesh":2,
			"name":"DrawerKnob",
			"rotation":[
				1,
				0,
				0,
				0
			],
			"scale":[
				-0.49384555220603943,
				-0.19105099141597748,
				-0.4151145815849304
			],
			"translation":[
				0.6915213465690613,
				0.5185805559158325,
				1.4526368379592896
			]
		}
	],
	"materials":[
		{
			"doubleSided":true,
			"name":"Material",
			"pbrMetallicRoughness":{
				"baseColorFactor":[
					0.800000011920929,
					0.800000011920929,
					0.800000011920929,
					1
				],
				"metallicFactor":0,
				"roughnessFactor":0.5
			}
		}
	],
	"meshes":[
		{
			"name":"Cube",
			"primitives":[
				{
					"attributes":{
						"POSITION":0,
						"TEXCOORD_0":1,
						"NORMAL":2
					},
					"indices":3,
					"material":0
				}
			]
		},
		{
			"name":"Cube.001",
			"primitives":[
				{
					"attributes":{
						"POSITION":4,
						"TEXCOORD_0":5,
						"NORMAL":6
					},
					"indices":7
				}
			]
		},
		{
			"name":"Cube.002",
			"primitives":[
				{
					"attributes":{
						"POSITION":8,
						"TEXCOORD_0":9,
						"NORMAL":10
					},
					"indices":11
				}
			]
		}
	],
	"accessors":[
		{
			"bufferView":0,
			"componentType":5126,
			"count":388,
			"max":[
				1,
				0.8124575614929199,
				1.958249807357788
			],
			"min":[
				-1,
				-1.0237598419189453,
				-1.958249807357788
			],
			"type":"VEC3"
		},
		{
			"bufferView":1,
			"componentType":5126,
			"count":388,
			"type":"VEC2"
		},
		{
			"bufferView":2,
			"componentType":5126,
			"count":388,
			"type":"VEC3"
		},
		{
			"bufferView":3,
			"componentType":5123,
			"count":798,
			"type":"SCALAR"
		},
		{
			"bufferView":4,
			"componentType":5126,
			"count":498,
			"max":[
				1,
				1,
				1.076054334640503
			],
			"min":[
				-1.0580440759658813,
				-1,
				-8.0475435256958
			],
			"type":"VEC3"
		},
		{
			"bufferView":5,
			"componentType":5126,
			"count":498,
			"type":"VEC2"
		},
		{
			"bufferView":6,
			"componentType":5126,
			"count":498,
			"type":"VEC3"
		},
		{
			"bufferView":7,
			"componentType":5123,
			"count":936,
			"type":"SCALAR"
		},
		{
			"bufferView":8,
			"componentType":5126,
			"count":1536,
			"max":[
				0.025402188301086426,
				0.0986860916018486,
				0.03279120475053787
			],
			"min":[
				-0.015446066856384277,
				-0.1029701828956604,
				-7.031518459320068
			],
			"type":"VEC3"
		},
		{
			"bufferView":9,
			"componentType":5126,
			"count":1536,
			"type":"VEC2"
		},
		{
			"bufferView":10,
			"componentType":5126,
			"count":1536,
			"type":"VEC3"
		},
		{
			"bufferView":11,
			"componentType":5123,
			"count":3048,
			"type":"SCALAR"
		}
	],
	"bufferViews":[
		{
			"buffer":0,
			"byteLength":4656,
			"byteOffset":0,
			"target":34962
		},
		{
			"buffer":0,
			"byteLength":3104,
			"byteOffset":4656,
			"target":34962
		},
		{
			"buffer":0,
			"byteLength":4656,
			"byteOffset":7760,
			"target":34962
		},
		{
			"buffer":0,
			"byteLength":1596,
			"byteOffset":12416,
			"target":34963
		},
		{
			"buffer":0,
			"byteLength":5976,
			"byteOffset":14012,
			"target":34962
		},
		{
			"buffer":0,
			"byteLength":3984,
			"byteOffset":19988,
			"target":34962
		},
		{
			"buffer":0,
			"byteLength":5976,
			"byteOffset":23972,
			"target":34962
		},
		{
			"buffer":0,
			"byteLength":1872,
			"byteOffset":29948,
			"target":34963
		},
		{
			"buffer":0,
			"byteLength":18432,
			"byteOffset":31820,
			"target":34962
		},
		{
			"buffer":0,
			"byteLength":12288,
			"byteOffset":50252,
			"target":34962
		},
		{
			"buffer":0,
			"byteLength":18432,
			"byteOffset":62540,
			"target":34962
		},
		{
			"buffer":0,
			"byteLength":6096,
			"byteOffset":80972,
			"target":34963
		}
	],
	"buffers":[
		{
			"byteLength":87068,
			"uri":"data:application/octet-stream;base64,"
		}
	]
}
