{
	"asset":{
		"generator":"Khronos glTF Blender I/O v3.5.30",
		"version":"2.0"
	},
	"scene":0,
	"scenes":[
		{
			"name":"Scene",
			"nodes":[
				0
			]
		}
	],
	"nodes":[
		{
			"mesh":0,
			"name":"Cube"
		}
	],
	"meshes":[
		{
			"name":"Cube.001",
			"primitives":[
				{
					"attributes":{
						"POSITION":0,
						"TEXCOORD_0":1,
						"NORMAL":2
					},
					"indices":3
				}
			]
		}
	],
	"accessors":[
		{
			"bufferView":0,
			"componentType":5126,
			"count":276,
			"max":[
				3.272459030151367,
				4.596523284912109,
				1
			],
			"min":[
				-3.272459030151367,
				-0.40196648240089417,
				-2.237161636352539
			],
			"type":"VEC3"
		},
		{
			"bufferView":1,
			"componentType":5126,
			"count":276,
			"type":"VEC2"
		},
		{
			"bufferView":2,
			"componentType":5126,
			"count":276,
			"type":"VEC3"
		},
		{
			"bufferView":3,
			"componentType":5123,
			"count":732,
			"type":"SCALAR"
		}
	],
	"bufferViews":[
		{
			"buffer":0,
			"byteLength":3312,
			"byteOffset":0,
			"target":34962
		},
		{
			"buffer":0,
			"byteLength":2208,
			"byteOffset":3312,
			"target":34962
		},
		{
			"buffer":0,
			"byteLength":3312,
			"byteOffset":5520,
			"target":34962
		},
		{
			"buffer":0,
			"byteLength":1464,
			"byteOffset":8832,
			"target":34963
		}
	],
	"buffers":[
		{
			"byteLength":10296,
			"uri":"data:application/octet-stream;base64,"
		}
	]
}
