{
	"asset":{
		"generator":"Khronos glTF Blender I/O v3.5.30",
		"version":"2.0"
	},
	"scene":0,
	"scenes":[
		{
			"name":"Scene",
			"nodes":[
				0
			]
		}
	],
	"nodes":[
		{
			"mesh":0,
			"name":"Mug",
			"scale":[
				1,
				1.0934308767318726,
				1
			]
		}
	],
	"meshes":[
		{
			"name":"Cylinder",
			"primitives":[
				{
					"attributes":{
						"POSITION":0,
						"TEXCOORD_0":1,
						"NORMAL":2
					},
					"indices":3
				},
				{
					"attributes":{
						"POSITION":4,
						"TEXCOORD_0":5,
						"NORMAL":6
					},
					"indices":7
				}
			]
		}
	],
	"accessors":[
		{
			"bufferView":0,
			"componentType":5126,
			"count":1076,
			"max":[
				1.0593875646591187,
				1.13620924949646,
				1.0635653734207153
			],
			"min":[
				-1.0635653734207153,
				-1,
				-1.0635653734207153
			],
			"type":"VEC3"
		},
		{
			"bufferView":1,
			"componentType":5126,
			"count":1076,
			"type":"VEC2"
		},
		{
			"bufferView":2,
			"componentType":5126,
			"count":1076,
			"type":"VEC3"
		},
		{
			"bufferView":3,
			"componentType":5123,
			"count":1866,
			"type":"SCALAR"
		},
		{
			"bufferView":4,
			"componentType":5126,
			"count":171,
			"max":[
				1.9503527879714966,
				1.0129318237304688,
				0.14899484813213348
			],
			"min":[
				0.9135850071907043,
				-0.620682418346405,
				-0.21182450652122498
			],
			"type":"VEC3"
		},
		{
			"bufferView":5,
			"componentType":5126,
			"count":171,
			"type":"VEC2"
		},
		{
			"bufferView":6,
			"componentType":5126,
			"count":171,
			"type":"VEC3"
		},
		{
			"bufferView":7,
			"componentType":5123,
			"count":798,
			"type":"SCALAR"
		}
	],
	"bufferViews":[
		{
			"buffer":0,
			"byteLength":12912,
			"byteOffset":0,
			"target":34962
		},
		{
			"buffer":0,
			"byteLength":8608,
			"byteOffset":12912,
			"target":34962
		},
		{
			"buffer":0,
			"byteLength":12912,
			"byteOffset":21520,
			"target":34962
		},
		{
			"buffer":0,
			"byteLength":3732,
			"byteOffset":34432,
			"target":34963
		},
		{
			"buffer":0,
			"byteLength":2052,
			"byteOffset":38164,
			"target":34962
		},
		{
			"buffer":0,
			"byteLength":1368,
			"byteOffset":40216,
			"target":34962
		},
		{
			"buffer":0,
			"byteLength":2052,
			"byteOffset":41584,
			"target":34962
		},
		{
			"buffer":0,
			"byteLength":1596,
			"byteOffset":43636,
			"target":34963
		}
	],
	"buffers":[
		{
			"byteLength":45232,
			"uri":"data:application/octet-stream;base64,"
		}
	]
}
