{
	"asset":{
		"generator":"Khronos glTF Blender I/O v3.5.30",
		"version":"2.0"
	},
	"scene":0,
	"scenes":[
		{
			"name":"Scene",
			"nodes":[
				0,
				1
			]
		}
	],
	"nodes":[
		{
			"mesh":0,
			"name":"Pillow",
			"scale":[
				1,
				0.050000011920928955,
				1
			]
		},
		{
			"name":"Force"
		}
	],
	"meshes":[
		{
			"name":"Cube.001",
			"primitives":[
				{
					"attributes":{
						"POSITION":0,
						"TEXCOORD_0":1,
						"NORMAL":2
					},
					"indices":3
				}
			]
		}
	],
	"accessors":[
		{
			"bufferView":0,
			"componentType":5126,
			"count":5919,
			"max":[
				0.9644456505775452,
				7.447437286376953,
				0.9636610746383667
			],
			"min":[
				-0.9672693014144897,
				-7.432721138000488,
				-0.97541743516922
			],
			"type":"VEC3"
		},
		{
			"bufferView":1,
			"componentType":5126,
			"count":5919,
			"type":"VEC2"
		},
		{
			"bufferView":2,
			"componentType":5126,
			"count":5919,
			"type":"VEC3"
		},
		{
			"bufferView":3,
			"componentType":5123,
			"count":33660,
			"type":"SCALAR"
		}
	],
	"bufferViews":[
		{
			"buffer":0,
			"byteLength":71028,
			"byteOffset":0,
			"target":34962
		},
		{
			"buffer":0,
			"byteLength":47352,
			"byteOffset":71028,
			"target":34962
		},
		{
			"buffer":0,
			"byteLength":71028,
			"byteOffset":118380,
			"target":34962
		},
		{
			"buffer":0,
			"byteLength":67320,
			"byteOffset":189408,
			"target":34963
		}
	],
	"buffers":[
		{
			"byteLength":256728,
			"uri":"data:application/octet-stream;base64,"
		}
	]
}
